<svg width="105" height="20" viewBox="0 0 105 20" fill="none" xmlns="http://www.w3.org/2000/svg">
<g clip-path="url(#clip0_1279_33417)">
<path fill-rule="evenodd" clip-rule="evenodd" d="M99.7467 0.530751H4.98712C2.558 0.530751 0.588807 2.50748 0.588807 4.94589V14.6681C0.588807 17.1065 2.558 19.0833 4.98712 19.0833H99.7467C102.176 19.0833 104.144 17.1065 104.144 14.6681V4.94589C104.144 2.50748 102.176 0.530751 99.7467 0.530751ZM4.98712 0.0847778C2.31263 0.0847778 0.144531 2.26117 0.144531 4.94589V14.6681C0.144531 17.3528 2.31263 19.5292 4.98712 19.5292H99.7467C102.421 19.5292 104.589 17.3528 104.589 14.6681V4.94589C104.589 2.26117 102.421 0.0847778 99.7467 0.0847778H4.98712Z" fill="#303232"/>
<path opacity="0.9" fill-rule="evenodd" clip-rule="evenodd" d="M7.47932 4.73407H9.8461V14.895H7.47932C6.53571 14.895 6.19355 14.7968 5.84855 14.6123C5.50359 14.4278 5.23286 14.1571 5.04836 13.8121C4.86387 13.4671 4.76562 13.125 4.76562 12.1813V7.44779C4.76562 6.50418 4.86387 6.16196 5.04836 5.81701C5.23286 5.47204 5.50359 5.2013 5.84855 5.01681C6.19355 4.83232 6.53571 4.73407 7.47932 4.73407Z" fill="#303232"/>
<path opacity="0.5" fill-rule="evenodd" clip-rule="evenodd" d="M9.84375 4.73407H12.2105C13.1541 4.73407 13.4963 4.83232 13.8412 5.01681C14.1862 5.2013 14.457 5.47204 14.6415 5.81701C14.826 6.16196 14.9242 6.50418 14.9242 7.44779V9.81457H9.84375V4.73407Z" fill="#303232"/>
<path opacity="0.2" fill-rule="evenodd" clip-rule="evenodd" d="M14.9242 9.81451V12.1813C14.9242 13.1249 14.826 13.4671 14.6415 13.8121C14.457 14.157 14.1862 14.4278 13.8412 14.6123C13.4963 14.7967 13.1541 14.895 12.2105 14.895H9.84375V9.81451H14.9242Z" fill="#303232"/>
<path d="M20.6562 12.7778H21.557V10.6789H22.7814C24.1661 10.6789 24.8512 9.8422 24.8512 8.74026C24.8512 7.64126 24.1719 6.80754 22.7843 6.80754H20.6562V12.7778ZM21.557 9.91509V7.58004H22.6881C23.5802 7.58004 23.9446 8.06398 23.9446 8.74026C23.9446 9.41659 23.5802 9.91509 22.6998 9.91509H21.557ZM27.6672 12.8681C28.9295 12.8681 29.7545 11.944 29.7545 10.5593C29.7545 9.16587 28.9295 8.24176 27.6672 8.24176C26.405 8.24176 25.58 9.16587 25.58 10.5593C25.58 11.944 26.405 12.8681 27.6672 12.8681ZM27.6701 12.1364C26.8451 12.1364 26.4604 11.4164 26.4604 10.5564C26.4604 9.69937 26.8451 8.97059 27.6701 8.97059C28.4893 8.97059 28.8741 9.69937 28.8741 10.5564C28.8741 11.4164 28.4893 12.1364 27.6701 12.1364ZM31.5619 12.7778H32.4481L33.3576 9.54487H33.4246L34.3341 12.7778H35.2233L36.538 8.30009H35.6372L34.7656 11.5738H34.7219L33.8474 8.30009H32.9465L32.0662 11.5884H32.0225L31.145 8.30009H30.2442L31.5619 12.7778ZM39.1587 12.8681C40.1353 12.8681 40.8262 12.3871 41.0244 11.6583L40.1995 11.5096C40.042 11.9324 39.6631 12.1481 39.1675 12.1481C38.4212 12.1481 37.9198 11.6641 37.8965 10.8013H41.0798V10.4923C41.0798 8.87437 40.112 8.24176 39.0975 8.24176C37.8499 8.24176 37.0278 9.19215 37.0278 10.5681C37.0278 11.9586 37.8382 12.8681 39.1587 12.8681ZM37.8994 10.1483C37.9344 9.51281 38.395 8.96181 39.1034 8.96181C39.7797 8.96181 40.2227 9.4632 40.2257 10.1483H37.8994ZM42.0469 12.7778H42.9186V10.0434C42.9186 9.45743 43.3704 9.0347 43.9884 9.0347C44.1691 9.0347 44.3732 9.06676 44.4432 9.0872V8.25343C44.3557 8.24176 44.1838 8.23304 44.073 8.23304C43.5483 8.23304 43.0993 8.53037 42.936 9.01137H42.8894V8.30009H42.0469V12.7778ZM46.967 12.8681C47.9435 12.8681 48.6345 12.3871 48.8327 11.6583L48.0077 11.5096C47.8502 11.9324 47.4713 12.1481 46.9757 12.1481C46.2295 12.1481 45.728 11.6641 45.7047 10.8013H48.8881V10.4923C48.8881 8.87437 47.9202 8.24176 46.9058 8.24176C45.6581 8.24176 44.836 9.19215 44.836 10.5681C44.836 11.9586 45.6464 12.8681 46.967 12.8681ZM45.7076 10.1483C45.7426 9.51281 46.2032 8.96181 46.9116 8.96181C47.5879 8.96181 48.031 9.4632 48.0339 10.1483H45.7076ZM51.5314 12.8652C52.3476 12.8652 52.6683 12.3667 52.8257 12.081H52.8986V12.7778H53.7498V6.80754H52.8782V9.02598H52.8257C52.6683 8.74904 52.3709 8.24176 51.5372 8.24176C50.4557 8.24176 49.6599 9.09593 49.6599 10.5476C49.6599 11.9965 50.444 12.8652 51.5314 12.8652ZM51.7238 12.1219C50.9454 12.1219 50.5402 11.4368 50.5402 10.5389C50.5402 9.64982 50.9367 8.9822 51.7238 8.9822C52.4846 8.9822 52.8927 9.60315 52.8927 10.5389C52.8927 11.4805 52.4759 12.1219 51.7238 12.1219ZM57.2365 12.7778H58.0876V12.081H58.1604C58.3176 12.3667 58.6387 12.8652 59.4548 12.8652C60.5392 12.8652 61.3265 11.9965 61.3265 10.5476C61.3265 9.09593 60.5276 8.24176 59.4459 8.24176C58.6154 8.24176 58.3148 8.74904 58.1604 9.02598H58.1081V6.80754H57.2365V12.7778ZM58.0904 10.5389C58.0904 9.60315 58.4987 8.9822 59.2592 8.9822C60.0492 8.9822 60.4459 9.64982 60.4459 10.5389C60.4459 11.4368 60.0376 12.1219 59.2592 12.1219C58.5104 12.1219 58.0904 11.4805 58.0904 10.5389ZM62.6959 14.4569C63.4159 14.4569 63.8704 14.0808 64.1298 13.3754L65.9754 8.30009H65.0392L63.9054 11.7749H63.8587L62.7248 8.30009H61.792L63.4304 12.836L63.3226 13.1334C63.1009 13.7281 62.7887 13.7776 62.3109 13.6465L62.1009 14.3607C62.2059 14.4073 62.4331 14.4569 62.6959 14.4569ZM73.9954 8.74904C73.7915 7.4722 72.7915 6.72593 71.5292 6.72593C69.9842 6.72593 68.8442 7.8832 68.8442 9.79265C68.8442 11.7021 69.9787 12.8594 71.5292 12.8594C72.8409 12.8594 73.8004 12.0373 73.9954 10.8566L73.0859 10.8538C72.9315 11.6175 72.2904 12.0373 71.5354 12.0373C70.512 12.0373 69.7392 11.2531 69.7392 9.79265C69.7392 8.34381 70.5092 7.54798 71.5381 7.54798C72.2987 7.54798 72.9376 7.97648 73.0859 8.74904H73.9954ZM75.8754 6.80754H75.0037V12.7778H75.8754V6.80754ZM78.9776 12.8681C79.9542 12.8681 80.6448 12.3871 80.8431 11.6583L80.0181 11.5096C79.8609 11.9324 79.482 12.1481 78.9865 12.1481C78.2398 12.1481 77.7387 11.6641 77.7154 10.8013H80.8987V10.4923C80.8987 8.87437 79.9309 8.24176 78.9165 8.24176C77.6687 8.24176 76.8465 9.19215 76.8465 10.5681C76.8465 11.9586 77.657 12.8681 78.9776 12.8681ZM77.7181 10.1483C77.7531 9.51281 78.2137 8.96181 78.922 8.96181C79.5987 8.96181 80.0415 9.4632 80.0442 10.1483H77.7181ZM83.1687 12.8769C83.9092 12.8769 84.3259 12.5008 84.492 12.1656H84.527V12.7778H85.3787V9.80432C85.3787 8.5012 84.3526 8.24176 83.6409 8.24176C82.8309 8.24176 82.0842 8.56826 81.7926 9.38454L82.612 9.57109C82.7404 9.25331 83.067 8.94726 83.6526 8.94726C84.2154 8.94726 84.5037 9.2417 84.5037 9.74893V9.76932C84.5037 10.0871 84.1776 10.0813 83.3726 10.1745C82.5248 10.2736 81.6559 10.4952 81.6559 11.5126C81.6559 12.393 82.3176 12.8769 83.1687 12.8769ZM83.3581 12.1773C82.8654 12.1773 82.5098 11.9557 82.5098 11.5243C82.5098 11.0578 82.9237 10.8916 83.4281 10.8246C83.7109 10.7867 84.3815 10.7109 84.507 10.5855V11.1628C84.507 11.6933 84.0842 12.1773 83.3581 12.1773ZM86.5392 12.7778H87.4109V10.0434C87.4109 9.45743 87.8631 9.0347 88.4809 9.0347C88.6615 9.0347 88.8659 9.06676 88.9359 9.0872V8.25343C88.8481 8.24176 88.6765 8.23304 88.5654 8.23304C88.0409 8.23304 87.592 8.53037 87.4287 9.01137H87.382V8.30009H86.5392V12.7778ZM89.7598 12.7778H90.6109V12.081H90.6842C90.8415 12.3667 91.162 12.8652 91.9781 12.8652C93.0626 12.8652 93.8498 11.9965 93.8498 10.5476C93.8498 9.09593 93.0509 8.24176 91.9698 8.24176C91.1387 8.24176 90.8387 8.74904 90.6842 9.02598H90.6315V6.80754H89.7598V12.7778ZM90.6142 10.5389C90.6142 9.60315 91.022 8.9822 91.7831 8.9822C92.5731 8.9822 92.9698 9.64982 92.9698 10.5389C92.9698 11.4368 92.5615 12.1219 91.7831 12.1219C91.0337 12.1219 90.6142 11.4805 90.6142 10.5389ZM94.8287 12.7778H95.7004V8.30009H94.8287V12.7778ZM95.2687 7.6092C95.5692 7.6092 95.8198 7.37598 95.8198 7.09031C95.8198 6.80459 95.5692 6.56848 95.2687 6.56848C94.9659 6.56848 94.7181 6.80459 94.7181 7.09031C94.7181 7.37598 94.9659 7.6092 95.2687 7.6092ZM98.9631 8.30009H98.0448V7.22731H97.1731V8.30009H96.517V8.9997H97.1731V11.6438C97.1703 12.4571 97.7915 12.8506 98.4792 12.836C98.7559 12.8331 98.9426 12.7806 99.0448 12.7428L98.887 12.0228C98.8292 12.0344 98.7209 12.0606 98.5815 12.0606C98.2987 12.0606 98.0448 11.9674 98.0448 11.463V8.9997H98.9631V8.30009Z" fill="#303232"/>
</g>
<defs>
<clipPath id="clip0_1279_33417">
<rect width="105" height="20" fill="#303232"/>
</clipPath>
</defs>
</svg>
